<?xml version="1.0" standalone="no"?>
<!DOCTYPE svg PUBLIC "-//W3C//DTD SVG 20010904//EN"
 "http://www.w3.org/TR/2001/REC-SVG-20010904/DTD/svg10.dtd">
<svg version="1.0" xmlns="http://www.w3.org/2000/svg"
 width="640.000000pt" height="640.000000pt" viewBox="0 0 640.000000 640.000000"
 preserveAspectRatio="xMidYMid meet">
<metadata>
Created by potrace 1.14, written by Peter Selinger 2001-2017
</metadata>
<g transform="translate(0.000000,640.000000) scale(0.100000,-0.100000)"
fill="#000000" stroke="none">
<path d="M0 5481 c0 -726 3 -920 13 -924 9 -4 9 -6 0 -6 -10 -1 -13 -154 -13
-731 0 -678 1 -729 17 -723 13 5 15 2 10 -11 -4 -10 -7 -23 -8 -29 0 -7 -4 -3
-9 8 -5 12 -9 -58 -9 -177 -1 -148 2 -198 12 -201 9 -4 9 -6 0 -6 -10 -1 -13
-276 -13 -1341 l0 -1340 1129 0 1128 0 7 61 c3 34 6 103 6 153 0 50 5 109 9
131 12 52 31 299 35 440 1 61 -4 223 -12 360 -16 287 -11 759 8 813 10 28 17
33 39 30 l26 -3 1 -340 c1 -214 6 -362 13 -400 23 -117 23 -300 2 -605 -12
-162 -24 -372 -28 -467 l-6 -173 2021 0 2022 0 0 3200 0 3200 -1039 0 c-822 0
-1040 -3 -1044 -12 -4 -10 -6 -10 -6 -1 -1 10 -447 13 -2156 13 l-2155 0 0
-919z m5060 875 c-7 -7 -13 -7 -20 0 -6 6 -3 10 10 10 13 0 16 -4 10 -10z m53
7 c-7 -2 -19 -2 -25 0 -7 3 -2 5 12 5 14 0 19 -2 13 -5z m257 -32 c0 -5 -8
-19 -19 -32 l-18 -23 -27 21 c-18 14 -23 24 -15 28 6 4 15 2 19 -5 7 -11 13
-10 32 3 28 19 28 19 28 8z m-1146 -66 c-18 -13 -34 -11 -34 3 0 11 45 28 49
19 1 -5 -5 -14 -15 -22z m73 19 c-3 -3 -12 -4 -19 -1 -8 3 -5 6 6 6 11 1 17
-2 13 -5z m763 -124 c13 -8 12 -10 -5 -12 -51 -4 -103 -2 -97 4 6 6 22 9 77
16 6 1 17 -3 25 -8z m846 -17 c-10 -10 -19 5 -10 18 6 11 8 11 12 0 2 -7 1
-15 -2 -18z m-2236 7 c0 -5 -5 -10 -11 -10 -5 0 -7 5 -4 10 3 6 8 10 11 10 2
0 4 -4 4 -10z m1470 6 c0 -11 -19 -15 -25 -6 -3 5 1 10 9 10 9 0 16 -2 16 -4z
m-3590 -49 c22 -4 21 -4 -7 -6 -31 -1 -49 10 -36 23 4 3 9 2 12 -3 3 -5 17
-11 31 -14z m4365 13 c3 -5 18 -10 32 -10 15 0 24 -3 20 -6 -9 -9 -77 5 -77
16 0 13 17 13 25 0z m-5330 -10 c-16 -4 -48 -8 -70 -8 l-40 1 35 7 c19 4 51 7
70 8 l35 0 -30 -8z m5520 0 c36 0 54 -4 45 -9 -21 -11 -176 -1 -159 10 8 5 23
7 34 4 11 -2 47 -5 80 -5z m-4352 -7 c-7 -2 -19 -2 -25 0 -7 3 -2 5 12 5 14 0
19 -2 13 -5z m1773 -1 c-5 -8 -76 -4 -76 4 0 2 18 4 41 4 22 0 38 -4 35 -8z
m-416 -12 c0 -5 -4 -10 -10 -10 -5 0 -10 5 -10 10 0 6 5 10 10 10 6 0 10 -4
10 -10z m288 3 c-10 -2 -26 -2 -35 0 -10 3 -2 5 17 5 19 0 27 -2 18 -5z
m-3046 -149 c25 -5 35 -11 31 -20 -6 -16 -30 -19 -35 -4 -2 6 -23 14 -48 19
-36 7 -39 9 -15 10 17 0 47 -2 67 -5z m1303 0 c14 -6 14 -8 -1 -25 -16 -18
-16 -19 -1 -19 10 0 17 -5 17 -11 0 -6 -14 -9 -32 -8 -18 2 -43 -3 -55 -9 -12
-7 -26 -12 -32 -12 -13 0 -14 39 -2 59 8 12 12 12 26 -2 20 -21 51 -22 59 -2
4 10 -1 15 -14 15 -11 0 -20 5 -20 10 0 11 30 13 55 4z m4345 -19 c-7 -8 -21
-15 -31 -15 -26 0 -13 28 14 32 29 5 32 2 17 -17z m165 15 c4 -6 -10 -9 -37
-9 l-43 2 35 7 c19 4 36 8 37 9 1 0 5 -3 8 -9z m-5738 -6 c-3 -3 -12 -4 -19
-1 -8 3 -5 6 6 6 11 1 17 -2 13 -5z m44 -12 c-7 -2 -18 1 -23 6 -8 8 -4 9 13
5 13 -4 18 -8 10 -11z m1286 12 c-3 -3 -12 -4 -19 -1 -8 3 -5 6 6 6 11 1 17
-2 13 -5z m366 -1 c-7 -2 -21 -2 -30 0 -10 3 -4 5 12 5 17 0 24 -2 18 -5z
m2354 -15 c-3 -8 -6 -5 -6 6 -1 11 2 17 5 13 3 -3 4 -12 1 -19z m1771 15 c-10
-2 -28 -2 -40 0 -13 2 -5 4 17 4 22 1 32 -1 23 -4z m-6088 -86 c0 -6 -7 -2
-15 9 -8 10 -14 30 -14 44 0 23 1 22 14 -9 8 -18 15 -38 15 -44z m89 70 c-2
-1 -12 -9 -21 -16 -15 -12 -18 -11 -18 3 0 10 8 16 22 16 12 0 19 -1 17 -3z
m981 -7 c0 -5 7 -7 15 -4 8 4 15 1 15 -5 0 -16 -29 -14 -46 4 -14 13 -14 15 0
15 9 0 16 -4 16 -10z m517 4 c-3 -3 -12 -4 -19 -1 -8 3 -5 6 6 6 11 1 17 -2
13 -5z m3400 0 c-3 -3 -12 -4 -19 -1 -8 3 -5 6 6 6 11 1 17 -2 13 -5z m140 0
c-3 -3 -12 -4 -19 -1 -8 3 -5 6 6 6 11 1 17 -2 13 -5z m613 -4 c0 -5 -2 -10
-4 -10 -3 0 -8 5 -11 10 -3 6 -1 10 4 10 6 0 11 -4 11 -10z m150 1 c0 -9 -24
-21 -41 -21 -16 0 -10 18 9 23 28 8 32 7 32 -2z m129 -26 c-9 -8 -69 7 -69 17
0 6 11 7 26 4 19 -5 24 -4 18 6 -4 7 1 5 11 -4 11 -10 16 -20 14 -23z m-5354
5 c3 -5 -3 -10 -14 -10 -12 0 -21 5 -21 10 0 6 6 10 14 10 8 0 18 -4 21 -10z
m686 -28 c-6 -2 -11 -10 -11 -18 0 -8 -6 -11 -15 -8 -12 5 -11 11 8 33 17 21
23 24 26 12 2 -8 -2 -17 -8 -19z m3689 28 c0 -5 -7 -10 -15 -10 -8 0 -15 5
-15 10 0 6 7 10 15 10 8 0 15 -4 15 -10z m322 -12 c-7 -7 -12 -8 -12 -2 0 14
12 26 19 19 2 -3 -1 -11 -7 -17z m-4061 -11 c-10 -9 -11 -8 -5 6 3 10 9 15 12
12 3 -3 0 -11 -7 -18z m2052 16 c-7 -2 -21 -2 -30 0 -10 3 -4 5 12 5 17 0 24
-2 18 -5z m2395 0 c-10 -2 -26 -2 -35 0 -10 3 -2 5 17 5 19 0 27 -2 18 -5z
m-3031 -9 c-3 -3 -12 -4 -19 -1 -8 3 -5 6 6 6 11 1 17 -2 13 -5z m528 -4 c-28
-12 -37 -12 -30 0 3 6 16 10 28 9 21 0 21 -1 2 -9z m2475 -10 c0 -5 -4 -10 -9
-10 -5 0 -23 -3 -40 -6 -19 -4 -31 -2 -31 4 0 9 17 14 68 21 6 0 12 -3 12 -9z
m-3661 -75 c0 -27 -2 -35 -8 -25 -8 14 -15 72 -11 95 3 22 19 -33 19 -70z
m3257 60 c-8 -8 -16 -15 -19 -15 -2 0 -4 7 -4 15 0 8 9 15 19 15 17 0 18 -2 4
-15z m138 6 c3 -5 -1 -11 -9 -15 -9 -3 -15 0 -15 9 0 16 16 20 24 6z m-3017
-7 c-3 -3 -12 -4 -19 -1 -8 3 -5 6 6 6 11 1 17 -2 13 -5z m3160 0 c-3 -3 -12
-4 -19 -1 -8 3 -5 6 6 6 11 1 17 -2 13 -5z m-3207 -24 c-13 -25 -58 -55 -68
-46 -4 4 2 12 12 18 10 6 26 18 35 28 22 25 34 25 21 0z m2700 16 c0 -3 -4 -8
-10 -11 -5 -3 -10 -1 -10 4 0 6 5 11 10 11 6 0 10 -2 10 -4z m-5093 -58 c-2
-13 -4 -5 -4 17 -1 22 1 32 4 23 2 -10 2 -28 0 -40z m2423 27 c-7 -9 -15 -13
-19 -10 -3 3 1 10 9 15 21 14 24 12 10 -5z m2820 -4 c-28 -16 -60 -22 -60 -12
0 9 24 17 60 19 13 1 13 0 0 -7z m-120 -11 c0 -5 7 -10 15 -10 8 0 15 -4 15
-10 0 -18 -29 -11 -40 10 -7 14 -7 20 0 20 5 0 10 -4 10 -10z m-2620 -24 c0
-3 -4 -8 -10 -11 -5 -3 -10 -1 -10 4 0 6 5 11 10 11 6 0 10 -2 10 -4z m3530
-22 c0 -21 -17 -17 -23 5 -3 14 -1 18 9 14 8 -3 14 -11 14 -19z m-3943 -31
c-3 -10 -5 -2 -5 17 0 19 2 27 5 18 2 -10 2 -26 0 -35z m3206 20 c-7 -2 -19
-2 -25 0 -7 3 -2 5 12 5 14 0 19 -2 13 -5z m-5292 -40 c-8 -15 -10 -15 -11 -2
0 17 10 32 18 25 2 -3 -1 -13 -7 -23z m6229 -23 c0 -5 -4 -10 -10 -10 -5 0
-10 5 -10 10 0 6 5 10 10 10 6 0 10 -4 10 -10z m-6230 -31 c0 -11 -4 -17 -10
-14 -5 3 -10 13 -10 21 0 8 5 14 10 14 6 0 10 -9 10 -21z m5270 11 c0 -5 -4
-10 -10 -10 -5 0 -10 5 -10 10 0 6 5 10 10 10 6 0 10 -4 10 -10z m37 -6 c-3
-3 -12 -4 -19 -1 -8 3 -5 6 6 6 11 1 17 -2 13 -5z m418 -23 c-12 -10 -75 -32
-75 -25 0 6 60 33 75 34 6 0 6 -3 0 -9z m-3461 -23 c-3 -4 -9 -8 -15 -8 -5 0
-9 4 -9 8 0 5 7 9 15 9 8 0 12 -4 9 -9z m3001 -8 c-28 -12 -45 -12 -45 0 0 6
15 10 33 9 27 0 29 -2 12 -9z m-5285 -14 c0 -8 -4 -18 -10 -21 -5 -3 -10 3
-10 14 0 12 5 21 10 21 6 0 10 -6 10 -14z m5921 -22 c13 -14 17 -23 9 -19 -13
5 -46 45 -37 45 2 0 14 -11 28 -26z m-617 -10 c3 -8 2 -12 -4 -9 -6 3 -10 10
-10 16 0 14 7 11 14 -7z m31 -29 c6 -2 -28 -3 -75 -3 -54 0 -74 3 -55 7 28 7
106 4 130 -4z m585 0 c0 -4 -7 -20 -16 -38 -12 -21 -13 -32 -5 -35 6 -2 11 -9
11 -15 0 -6 -7 -4 -16 5 -14 14 -14 21 -3 52 11 30 29 49 29 31z m-3630 -15
c0 -5 -7 -10 -16 -10 -8 0 -12 5 -9 10 3 6 10 10 16 10 5 0 9 -4 9 -10z m3327
-37 c-11 -10 -57 -13 -57 -2 0 5 14 9 32 9 17 0 28 -3 25 -7z m-82 -13 c-3 -5
-12 -10 -18 -10 -7 0 -6 4 3 10 19 12 23 12 15 0z m230 -20 c8 -13 -5 -13 -25
0 -13 8 -13 10 2 10 9 0 20 -4 23 -10z m-5832 -39 c-6 -3 -13 -13 -16 -21 -4
-12 -6 -11 -6 3 -1 21 22 50 28 35 2 -6 -1 -13 -6 -17z m6027 9 c0 -5 -2 -10
-4 -10 -3 0 -8 5 -11 10 -3 6 -1 10 4 10 6 0 11 -4 11 -10z m80 -50 c0 -4 -12
-5 -26 -2 -17 3 -22 7 -13 12 13 9 39 2 39 -10z m-6153 -62 c-3 -7 -5 -2 -5
12 0 14 2 19 5 13 2 -7 2 -19 0 -25z m37 -147 c-7 -7 -12 3 -18 34 l-6 30 14
-30 c8 -16 12 -32 10 -34z m6226 -7 c-8 -2 -36 -4 -62 -6 -51 -3 -68 8 -20 14
30 3 106 -4 82 -8z m-3568 -73 c181 -123 331 -308 423 -522 98 -227 115 -308
140 -664 23 -316 19 -396 -26 -528 -61 -182 -239 -452 -515 -780 -167 -200
-164 -197 -214 -208 -25 -5 -53 -12 -62 -15 -41 -12 -192 366 -232 585 -17 88
-22 241 -8 241 5 0 21 -13 37 -30 16 -16 32 -30 37 -30 20 0 3 30 -49 85 -219
235 -443 535 -530 710 -76 151 -87 195 -87 335 0 229 62 414 176 532 66 67 81
71 303 76 186 4 203 6 248 28 36 19 52 35 68 68 34 74 145 165 201 166 9 0 49
-22 90 -49z m-995 23 c-3 -3 -12 -4 -19 -1 -8 3 -5 6 6 6 11 1 17 -2 13 -5z
m-1460 -140 c-3 -3 -12 -4 -19 -1 -8 3 -5 6 6 6 11 1 17 -2 13 -5z m1249 -51
c-10 -10 -19 5 -10 18 6 11 8 11 12 0 2 -7 1 -15 -2 -18z m-253 10 c-13 -2
-35 -2 -50 0 -16 2 -5 4 22 4 28 0 40 -2 28 -4z m284 -12 c-3 -14 -1 -18 9
-14 11 4 14 -6 15 -38 1 -36 2 -40 9 -19 5 18 7 10 6 -28 -1 -51 -2 -52 -16
-31 -16 24 -39 101 -40 132 0 9 5 17 11 17 6 0 9 -9 6 -19z m4431 10 c12 0 22
-5 22 -10 0 -4 -23 -4 -51 0 -58 9 -80 21 -28 15 19 -2 44 -4 57 -5z m-4628
-16 c7 -8 8 -15 2 -15 -5 0 -15 7 -22 15 -7 8 -8 15 -2 15 5 0 15 -7 22 -15z
m110 5 c0 -5 -7 -10 -15 -10 -8 0 -15 -7 -15 -17 0 -9 -3 -14 -6 -10 -10 10 7
47 22 47 8 0 14 -4 14 -10z m423 -3 c4 3 7 -1 7 -9 0 -9 -14 -21 -32 -27 -18
-6 -42 -21 -55 -33 -13 -12 -23 -17 -24 -12 0 5 -2 18 -4 29 -2 11 0 26 4 34
11 16 72 31 87 19 6 -4 14 -5 17 -1z m-1296 -29 c-3 -8 -6 -5 -6 6 -1 11 2 17
5 13 3 -3 4 -12 1 -19z m953 -45 c0 -7 -5 -13 -10 -13 -6 0 -8 -10 -4 -24 5
-20 2 -24 -13 -21 -10 2 -20 4 -22 4 -3 1 0 6 7 13 19 19 14 28 -18 28 -19 0
-30 5 -30 14 0 20 25 37 44 30 12 -5 16 0 17 17 1 22 2 22 14 -6 8 -16 14 -36
15 -42z m4695 53 c17 -12 15 -14 -21 -21 -21 -4 -72 -9 -111 -10 -57 -3 -73
-1 -73 10 0 23 58 30 90 10 9 -6 17 -3 24 8 13 21 65 22 91 3z m-5358 -62 c-3
-3 -12 -4 -19 -1 -8 3 -5 6 6 6 11 1 17 -2 13 -5z m128 -10 c-8 -9 -22 -13
-30 -10 -26 10 -16 26 16 26 28 0 29 -1 14 -16z m240 -4 c3 -5 -1 -10 -10 -10
-9 0 -13 5 -10 10 3 6 8 10 10 10 2 0 7 -4 10 -10z m-205 -4 c0 -3 -4 -8 -10
-11 -5 -3 -10 -1 -10 4 0 6 5 11 10 11 6 0 10 -2 10 -4z m230 -36 c0 -5 -12
-10 -27 -9 -25 0 -26 1 -8 9 27 12 35 12 35 0z m-347 -17 c-7 -2 -21 -2 -30 0
-10 3 -4 5 12 5 17 0 24 -2 18 -5z m647 -3 c0 -5 -7 -10 -15 -10 -8 0 -15 5
-15 10 0 6 7 10 15 10 8 0 15 -4 15 -10z m-103 -6 c-3 -3 -12 -4 -19 -1 -8 3
-5 6 6 6 11 1 17 -2 13 -5z m-1234 -11 c-7 -2 -19 -2 -25 0 -7 3 -2 5 12 5 14
0 19 -2 13 -5z m47 3 c0 -11 -19 -15 -25 -6 -3 5 1 10 9 10 9 0 16 -2 16 -4z
m1270 -16 c0 -5 -4 -10 -10 -10 -5 0 -10 5 -10 10 0 6 5 10 10 10 6 0 10 -4
10 -10z m58 -35 c0 -37 -4 -40 -27 -26 -12 8 -12 12 -3 24 7 8 12 19 11 23 -3
17 1 25 10 20 5 -3 9 -22 9 -41z m-1433 25 c-3 -5 -15 -10 -26 -10 -10 0 -19
5 -19 10 0 6 12 10 26 10 14 0 23 -4 19 -10z m232 -22 c-3 -8 -6 -5 -6 6 -1
11 2 17 5 13 3 -3 4 -12 1 -19z m-157 2 c0 -5 -4 -10 -9 -10 -6 0 -13 5 -16
10 -3 6 1 10 9 10 9 0 16 -4 16 -10z m1305 -20 c-3 -5 -10 -10 -16 -10 -5 0
-9 5 -9 10 0 6 7 10 16 10 8 0 12 -4 9 -10z m-1146 -43 c1 -5 -3 -5 -9 -2 -5
3 -10 16 -9 28 0 21 1 21 9 2 5 -11 9 -24 9 -28z m1046 13 c3 -5 1 -10 -4 -10
-6 0 -11 5 -11 10 0 6 2 10 4 10 3 0 8 -4 11 -10z m-87 -30 c7 -12 8 -20 2
-20 -5 0 -10 5 -10 10 0 6 -6 10 -14 10 -8 0 -18 5 -21 10 -3 6 2 10 12 10 10
0 24 -9 31 -20z m221 -44 c-9 -8 -10 -7 -5 7 3 10 7 28 7 40 2 16 3 14 6 -7 3
-16 -1 -34 -8 -40z m-929 50 c0 -3 -4 -8 -10 -11 -5 -3 -10 -1 -10 4 0 6 5 11
10 11 6 0 10 -2 10 -4z m573 -28 c4 -9 8 -10 14 -3 14 19 64 16 93 -5 15 -11
33 -20 40 -20 7 0 10 -7 6 -16 -3 -9 -6 -20 -6 -25 0 -12 -11 -11 -30 1 -13 9
-13 11 -1 19 10 6 1 8 -27 4 -28 -4 -42 -2 -42 6 0 6 8 11 18 12 14 0 14 2 -3
9 -30 13 -35 12 -35 -10 0 -23 -18 -27 -26 -5 -3 8 -14 17 -25 20 -11 4 -17
11 -14 16 9 13 32 11 38 -3z m237 2 c0 -5 -13 -10 -29 -10 -17 0 -33 5 -36 10
-4 6 8 10 29 10 20 0 36 -4 36 -10z m-1085 -11 c12 -18 -3 -22 -20 -5 -14 14
-14 16 -1 16 8 0 18 -5 21 -11z m813 -14 c25 -13 30 -20 22 -30 -15 -19 -50
-7 -50 17 0 15 -3 18 -12 11 -16 -12 -49 -13 -42 -1 3 5 -13 6 -35 2 -29 -5
-44 -2 -55 8 -12 13 -5 15 62 13 50 -2 88 -8 110 -20z m369 3 c-3 -8 -6 -5 -6
6 -1 11 2 17 5 13 3 -3 4 -12 1 -19z m-813 -3 c3 -8 1 -15 -4 -15 -6 0 -10 7
-10 15 0 8 2 15 4 15 2 0 6 -7 10 -15z m691 -15 c3 -6 -4 -10 -17 -10 -18 0
-20 2 -8 10 19 12 18 12 25 0z m35 -40 c4 -3 2 -11 -6 -17 -8 -8 -15 -9 -19
-3 -3 6 -2 10 3 10 6 0 8 10 6 23 -2 12 -1 15 2 7 4 -8 10 -17 14 -20z m84
-82 c-33 -113 -39 -121 -76 -113 -17 4 -28 2 -28 -4 0 -6 9 -11 19 -11 23 0
40 -22 23 -28 -7 -2 -12 -8 -12 -13 0 -6 5 -7 10 -4 6 3 10 -1 10 -10 0 -9 7
-30 16 -47 28 -55 16 -198 -18 -198 -4 0 -8 -9 -8 -20 0 -11 -4 -20 -9 -20
-11 0 -24 -31 -16 -39 3 -3 10 1 15 9 14 23 20 7 6 -17 l-12 -23 -27 26 c-18
16 -27 36 -28 57 -1 30 -1 31 -9 7 -10 -30 -10 -29 -16 38 -3 38 -1 52 9 52
18 0 45 107 36 148 -5 23 -3 32 7 32 10 0 10 5 -2 28 -23 44 -23 45 35 112 26
30 30 32 31 15 0 -11 -7 -31 -16 -43 -14 -21 -14 -22 5 -22 16 0 21 7 22 28 2
56 9 95 19 107 6 7 9 19 7 26 -2 8 -2 11 0 7 9 -16 23 -7 24 15 0 12 3 17 5
10 3 -6 -7 -54 -22 -105z m-1144 76 c0 -8 -4 -14 -10 -14 -5 0 -10 2 -10 4 0
2 -3 12 -6 20 -5 12 -2 15 10 10 9 -3 16 -12 16 -20z m847 20 c-3 -3 -12 -4
-19 -1 -8 3 -5 6 6 6 11 1 17 -2 13 -5z m163 -15 c0 -11 -27 -12 -34 0 -3 4
-3 11 0 14 8 8 34 -3 34 -14z m-1069 -16 c-12 -20 -14 -14 -5 12 4 9 9 14 11
11 3 -2 0 -13 -6 -23z m1139 -63 c0 -5 -7 -10 -15 -10 -8 0 -15 -8 -15 -17 0
-14 -2 -15 -12 -4 -11 10 -9 15 6 27 23 16 36 18 36 4z m-417 -57 c-7 -2 -21
-2 -30 0 -10 3 -4 5 12 5 17 0 24 -2 18 -5z m-417 -91 c-11 -10 -14 3 -8 33
l7 30 3 -28 c2 -16 1 -31 -2 -35z m287 51 c-7 -2 -21 -2 -30 0 -10 3 -4 5 12
5 17 0 24 -2 18 -5z m-513 -32 c0 -10 -7 -21 -15 -24 -12 -5 -12 -2 -3 18 13
30 18 31 18 6z m460 9 c0 -5 -2 -10 -4 -10 -2 0 -12 -3 -22 -7 -16 -6 -17 -5
-4 10 17 19 30 22 30 7z m-62 -19 c10 -6 7 -10 -12 -13 -25 -5 -33 1 -19 15 8
9 15 9 31 -2z m-63 -41 c-10 -11 -22 -20 -26 -20 -15 0 2 29 19 33 10 3 19 5
21 6 2 0 -4 -8 -14 -19z m-115 -34 c0 -3 -4 -8 -10 -11 -5 -3 -10 -1 -10 4 0
6 5 11 10 11 6 0 10 -2 10 -4z m0 -33 c0 -5 -5 -15 -10 -23 -8 -12 -10 -11
-10 8 0 12 5 22 10 22 6 0 10 -3 10 -7z m-307 -23 c-5 -19 -23 -29 -23 -12 0
7 20 32 26 32 1 0 0 -9 -3 -20z m296 -77 c-7 -10 -15 -20 -16 -22 -2 -2 -3 5
-3 17 0 14 6 22 16 22 14 0 15 -3 3 -17z m14 -33 c-3 -11 -9 -17 -14 -15 -10
7 -1 35 11 35 5 0 6 -9 3 -20z m102 -108 c-6 -7 -45 19 -45 29 0 5 11 2 24 -8
13 -10 23 -19 21 -21z m1010 -182 c3 -5 1 -10 -4 -10 -6 0 -11 5 -11 10 0 6 2
10 4 10 3 0 8 -4 11 -10z m-255 -13 c0 -14 -20 -37 -32 -37 -10 0 -11 34 -1
43 11 12 33 8 33 -6z m-390 -27 c-12 -8 -12 -10 -1 -10 8 0 12 -3 8 -6 -9 -9
-28 6 -22 17 4 5 12 9 18 9 7 0 6 -4 -3 -10z m-570 -10 c0 -5 -2 -10 -4 -10
-3 0 -8 5 -11 10 -3 6 -1 10 4 10 6 0 11 -4 11 -10z m834 -6 c9 -24 7 -27 -9
-10 -17 17 -19 26 -6 26 5 0 12 -7 15 -16z m416 8 c0 -5 14 -26 30 -47 29 -37
34 -59 8 -37 -7 6 -40 13 -73 16 -84 9 -124 17 -130 26 -3 4 15 16 39 26 46
20 126 30 126 16z m-590 -39 c0 -32 -13 -22 -18 13 -2 16 1 23 8 19 5 -3 10
-18 10 -32z m-143 5 c-3 -8 -6 -5 -6 6 -1 11 2 17 5 13 3 -3 4 -12 1 -19z
m113 -3 c0 -15 -6 -25 -14 -25 -8 0 -13 8 -11 18 2 9 4 20 4 25 2 20 21 4 21
-18z m333 -10 c7 -28 12 -57 15 -98 1 -11 7 -15 14 -11 8 5 9 2 4 -11 -9 -23
19 -54 43 -48 11 3 22 0 25 -6 4 -6 15 -11 26 -11 18 0 34 -23 23 -34 -11 -11
-23 -6 -23 9 0 8 -4 15 -10 15 -5 0 -7 -6 -4 -14 3 -8 -3 -16 -15 -19 -17 -4
-20 -1 -17 17 3 19 0 23 -22 22 -21 -1 -29 5 -37 29 -5 17 -15 36 -22 43 -6 6
-17 38 -23 69 -7 32 -15 64 -18 71 -3 9 2 12 14 10 11 -2 22 -15 27 -33z
m-411 5 c0 -11 1 -24 2 -30 1 -5 -3 -9 -8 -7 -11 2 -14 57 -3 57 4 0 8 -9 9
-20z m33 10 c3 -5 1 -10 -4 -10 -6 0 -11 5 -11 10 0 6 2 10 4 10 3 0 8 -4 11
-10z m-725 -15 c-7 -8 -18 -15 -24 -15 -6 0 -2 7 8 15 25 19 32 19 16 0z m623
-5 c6 -24 -8 -36 -17 -14 -8 22 -7 34 3 34 5 0 11 -9 14 -20z m-696 -16 c-3
-3 -12 -4 -19 -1 -8 3 -5 6 6 6 11 1 17 -2 13 -5z m193 -14 c0 -5 -2 -10 -4
-10 -3 0 -8 5 -11 10 -3 6 -1 10 4 10 6 0 11 -4 11 -10z m260 -10 c0 -5 -7 -7
-15 -4 -8 4 -15 8 -15 10 0 2 7 4 15 4 8 0 15 -4 15 -10z m110 -10 c0 -5 -4
-10 -10 -10 -5 0 -10 5 -10 10 0 6 5 10 10 10 6 0 10 -4 10 -10z m-450 -20 c0
-13 -11 -13 -30 0 -12 8 -11 10 8 10 12 0 22 -4 22 -10z m260 -6 c0 -10 -11
-11 -38 -5 -2 1 -1 5 2 9 8 13 36 10 36 -4z m-320 -4 c0 -5 -4 -10 -10 -10 -5
0 -10 5 -10 10 0 6 5 10 10 10 6 0 10 -4 10 -10z m-129 -88 c-7 -16 -20 -28
-32 -29 -18 -2 -19 0 -7 15 7 9 19 23 26 30 6 7 12 19 13 25 0 8 2 8 6 -1 3
-7 0 -25 -6 -40z m1465 -17 c9 -8 23 -15 33 -15 10 0 26 -10 37 -21 19 -22 19
-22 -5 -9 -13 7 -45 13 -71 13 -46 1 -54 7 -37 35 11 16 25 15 43 -3z m249 -5
c16 -17 16 -20 3 -15 -9 4 -19 13 -22 21 -7 19 -2 18 19 -6z m-1759 -47 c-10
-10 -19 5 -10 18 6 11 8 11 12 0 2 -7 1 -15 -2 -18z m14 -33 c0 -5 -5 -10 -11
-10 -5 0 -7 5 -4 10 3 6 8 10 11 10 2 0 4 -4 4 -10z m1105 -10 c3 -5 1 -10 -4
-10 -6 0 -11 5 -11 10 0 6 2 10 4 10 3 0 8 -4 11 -10z m55 0 c0 -5 -5 -10 -11
-10 -5 0 -7 5 -4 10 3 6 8 10 11 10 2 0 4 -4 4 -10z m-894 -37 c-1 -1 -12 0
-24 4 -18 4 -20 8 -11 19 10 12 14 11 24 -3 8 -10 12 -19 11 -20z m-305 -30
c-24 -46 -27 -31 -5 23 9 22 19 34 21 27 2 -6 -5 -29 -16 -50z m1094 47 c3 -5
-1 -10 -10 -10 -9 0 -13 5 -10 10 3 6 8 10 10 10 2 0 7 -4 10 -10z m-645 -10
c0 -5 -8 -10 -18 -10 -10 0 -23 -5 -29 -11 -6 -6 -17 -9 -25 -7 -8 3 -2 11 17
21 35 19 55 21 55 7z m542 -2 c-9 -9 -15 -9 -24 0 -9 9 -7 12 12 12 19 0 21
-3 12 -12z m272 1 c-5 -9 1 -10 20 -5 14 3 26 2 26 -3 0 -15 -14 -21 -64 -25
-38 -4 -48 -1 -56 15 -8 14 -7 19 3 19 7 0 18 -5 24 -11 9 -9 16 -8 28 5 19
19 29 21 19 5z m76 2 c0 -6 -4 -13 -10 -16 -5 -3 -10 1 -10 9 0 9 5 16 10 16
6 0 10 -4 10 -9z m-184 -39 c-10 -10 -29 15 -21 28 6 9 10 8 17 -4 6 -10 7
-20 4 -24z m-1033 13 c-3 -9 -8 -14 -10 -11 -3 3 -2 9 2 15 9 16 15 13 8 -4z
m806 -11 c-14 -18 -24 -11 -15 11 3 9 11 13 16 10 8 -5 7 -11 -1 -21z m129 -9
c-3 -3 -9 2 -12 12 -6 14 -5 15 5 6 7 -7 10 -15 7 -18z m-833 5 c3 -5 -2 -21
-11 -35 -20 -30 -11 -44 16 -27 29 18 35 15 15 -8 -21 -24 -48 -26 -65 -5 -10
12 -8 20 9 41 11 14 18 30 15 35 -3 5 -1 9 5 9 5 0 13 -4 16 -10z m905 -23 c9
-3 4 -6 -12 -6 -27 -1 -35 8 -21 22 4 4 9 3 12 -1 3 -5 13 -12 21 -15z m-750
9 c0 -3 -4 -8 -10 -11 -5 -3 -10 -1 -10 4 0 6 5 11 10 11 6 0 10 -2 10 -4z
m327 -22 c-9 -9 -28 6 -21 18 4 6 10 6 17 -1 6 -6 8 -13 4 -17z m130 -16 c-3
-7 -5 -2 -5 12 0 14 2 19 5 13 2 -7 2 -19 0 -25z m393 22 c-12 -7 -12 -12 -2
-22 6 -6 12 -20 12 -31 0 -10 4 -16 9 -13 5 3 16 -5 25 -19 9 -14 12 -25 6
-25 -18 0 -56 47 -67 84 -10 34 -10 36 10 36 18 0 19 -2 7 -10z m-780 -9 c0
-12 -39 -21 -45 -11 -3 5 3 11 12 13 29 8 33 7 33 -2z m630 -17 c0 -8 -5 -12
-10 -9 -6 4 -8 11 -5 16 9 14 15 11 15 -7z m-381 -36 c0 -35 -2 -39 -9 -21 -8
19 -3 63 6 63 2 0 4 -19 3 -42z m431 27 c0 -9 -9 -15 -22 -14 -17 1 -19 2 -5
6 9 2 17 9 17 14 0 5 2 9 5 9 3 0 5 -7 5 -15z m-340 -5 c0 -5 -5 -10 -11 -10
-5 0 -7 5 -4 10 3 6 8 10 11 10 2 0 4 -4 4 -10z m601 3 c0 -5 3 -21 5 -38 l4
-30 -15 25 c-17 29 -19 50 -5 50 6 0 10 -3 11 -7z m-821 -41 c3 -3 -6 -1 -19
3 -18 5 -22 4 -16 -6 6 -11 5 -11 -5 -2 -7 6 -9 16 -5 23 6 10 13 8 45 -18z
m325 17 c11 -17 -1 -21 -15 -4 -8 9 -8 15 -2 15 6 0 14 -5 17 -11z m35 -9 c0
-5 -4 -10 -10 -10 -5 0 -10 5 -10 10 0 6 5 10 10 10 6 0 10 -4 10 -10z m208
-10 c7 -11 10 -20 6 -20 -13 0 -44 21 -44 30 0 17 25 11 38 -10z m-938 0 c0
-5 -5 -10 -11 -10 -5 0 -7 5 -4 10 3 6 8 10 11 10 2 0 4 -4 4 -10z m245 -19
c-3 -6 -14 -11 -23 -11 -15 1 -15 2 2 15 21 16 32 13 21 -4z m995 -21 c0 -13
-6 -20 -17 -19 -11 0 -13 3 -5 6 6 2 12 11 12 19 0 8 2 14 5 14 3 0 5 -9 5
-20z m-1477 -3 c3 -8 1 -20 -4 -28 -6 -10 -9 -7 -9 14 0 29 5 35 13 14z m1394
-19 c-3 -7 -5 -2 -5 12 0 14 2 19 5 13 2 -7 2 -19 0 -25z m163 10 c8 3 12 1 8
-3 -4 -4 -3 -16 3 -27 14 -25 6 -32 -20 -19 -11 6 -18 17 -15 25 3 8 1 17 -5
21 -6 3 -11 12 -11 18 1 7 5 6 13 -4 7 -9 19 -14 27 -11z m-60 -28 c0 -5 -4
-10 -10 -10 -5 0 -10 5 -10 10 0 6 5 10 10 10 6 0 10 -4 10 -10z m-53 -22 c-3
-8 -6 -5 -6 6 -1 11 2 17 5 13 3 -3 4 -12 1 -19z m198 2 c4 -6 -5 -10 -19 -10
-14 0 -26 5 -26 10 0 6 9 10 19 10 11 0 23 -4 26 -10z m-158 -32 c-3 -8 -6 -5
-6 6 -1 11 2 17 5 13 3 -3 4 -12 1 -19z m128 2 c-3 -5 -11 -10 -16 -10 -6 0
-7 5 -4 10 3 6 11 10 16 10 6 0 7 -4 4 -10z m-164 -23 c-13 -13 -26 -3 -16 12
3 6 11 8 17 5 6 -4 6 -10 -1 -17z m-164 7 c-3 -3 -12 -4 -19 -1 -8 3 -5 6 6 6
11 1 17 -2 13 -5z m90 -51 c-3 -10 -5 -2 -5 17 0 19 2 27 5 18 2 -10 2 -26 0
-35z m-97 17 c0 -5 -2 -10 -4 -10 -3 0 -8 5 -11 10 -3 6 -1 10 4 10 6 0 11 -4
11 -10z m320 -10 c0 -5 -9 -10 -20 -10 -11 0 -20 5 -20 10 0 6 9 10 20 10 11
0 20 -4 20 -10z m-285 -10 c3 -5 -1 -10 -10 -10 -9 0 -13 5 -10 10 3 6 8 10
10 10 2 0 7 -4 10 -10z m114 -14 c9 -10 8 -15 -3 -19 -16 -7 -26 1 -26 20 0
17 14 17 29 -1z m55 -41 c3 -9 0 -15 -9 -15 -8 0 -15 7 -15 15 0 8 4 15 9 15
5 0 11 -7 15 -15z m21 -155 c4 -6 -7 -10 -27 -9 -27 0 -30 2 -13 9 27 12 33
12 40 0z m-65 -9 c0 -6 -17 -7 -37 -4 -52 8 -54 13 -5 13 23 0 42 -4 42 -9z
m-157 -8 c-7 -2 -19 -2 -25 0 -7 3 -2 5 12 5 14 0 19 -2 13 -5z m-485 -58 c-6
-14 -15 -25 -20 -25 -5 0 -1 11 8 25 9 14 18 25 20 25 2 0 -2 -11 -8 -25z
m-43 -4 c3 -5 1 -12 -5 -16 -5 -3 -10 1 -10 9 0 18 6 21 15 7z m-185 -86 c0
-8 -4 -15 -10 -15 -5 0 -10 7 -10 15 0 8 5 15 10 15 6 0 10 -7 10 -15z m17
-32 c-3 -10 -5 -2 -5 17 0 19 2 27 5 18 2 -10 2 -26 0 -35z m-507 11 c0 -8 -4
-12 -10 -9 -5 3 -10 10 -10 16 0 5 5 9 10 9 6 0 10 -7 10 -16z m40 -74 c0 -13
-1 -13 -10 0 -5 8 -10 22 -10 30 0 13 1 13 10 0 5 -8 10 -22 10 -30z m680
-110 l-1 -25 -19 24 c-27 32 -27 56 0 39 12 -8 20 -23 20 -38z m-369 -58 c-16
-5 -41 5 -41 17 0 7 10 6 26 -1 15 -7 21 -14 15 -16z m89 13 c-7 -8 -27 -15
-44 -14 l-31 1 30 13 c42 20 61 20 45 0z m-227 -12 c-13 -2 -23 -9 -23 -14 0
-5 -4 -9 -10 -9 -5 0 -7 7 -4 15 4 9 17 14 33 14 23 -2 24 -2 4 -6z m2070 -35
c-6 -7 -15 -26 -21 -43 -6 -16 -20 -55 -32 -85 -12 -30 -28 -77 -34 -105 l-12
-50 -67 -3 c-54 -2 -68 0 -73 13 -4 8 -2 21 4 28 5 6 15 30 22 52 16 49 58
112 105 156 39 38 58 47 94 48 17 1 21 -2 14 -11z m-1253 -43 c-14 -7 -27 -11
-30 -9 -6 7 22 24 40 23 9 0 5 -6 -10 -14z m-679 -445 c5 0 9 -7 9 -15 0 -11
-7 -14 -26 -11 -32 6 -38 11 -29 26 4 6 14 9 22 6 8 -3 19 -6 24 -6z m74 0 c3
-5 -1 -10 -10 -10 -9 0 -13 5 -10 10 3 6 8 10 10 10 2 0 7 -4 10 -10z m-150
-10 c-3 -5 -10 -10 -16 -10 -5 0 -9 5 -9 10 0 6 7 10 16 10 8 0 12 -4 9 -10z
m-430 -232 c-4 -13 -9 -31 -11 -40 -9 -30 -25 -20 -18 9 4 15 7 33 7 40 0 7 7
13 14 13 10 0 12 -7 8 -22z m25 -138 c0 -22 -4 -40 -10 -40 -11 0 -13 39 -4
64 10 26 14 19 14 -24z m-30 -16 c0 -8 -4 -13 -9 -9 -5 3 -12 -5 -14 -17 -3
-17 -5 -14 -6 10 -1 22 3 32 14 32 8 0 15 -7 15 -16z m3 -135 c4 8 5 8 3 -1
-5 -26 -31 -13 -33 17 l-2 30 13 -29 c8 -17 16 -24 19 -17z m960 -6 c-7 -2
-19 -2 -25 0 -7 3 -2 5 12 5 14 0 19 -2 13 -5z m-266 -740 c-3 -10 -5 -4 -5
12 0 17 2 24 5 18 2 -7 2 -21 0 -30z m-282 -12 c-6 -5 -25 10 -25 20 0 5 6 4
14 -3 8 -7 12 -15 11 -17z m552 -333 c-3 -8 -6 -5 -6 6 -1 11 2 17 5 13 3 -3
4 -12 1 -19z m-257 -12 c0 -3 -4 -8 -10 -11 -5 -3 -10 -1 -10 4 0 6 5 11 10
11 6 0 10 -2 10 -4z"/>
<path d="M2458 4883 c7 -3 16 -2 19 1 4 3 -2 6 -13 5 -11 0 -14 -3 -6 -6z"/>
<path d="M1930 4761 c-68 -24 -123 -79 -118 -119 7 -61 112 -90 284 -79 66 4
93 10 129 31 50 30 54 46 27 91 -49 79 -208 117 -322 76z"/>
<path d="M2114 3820 c-58 -9 -100 -28 -88 -40 5 -5 27 -5 49 0 22 5 65 11 95
12 40 3 55 8 55 18 0 18 -38 21 -111 10z"/>
<path d="M1475 4143 c2 -66 1 -72 -19 -76 -16 -3 -15 -5 7 -6 27 -1 27 0 26
57 0 31 -4 66 -9 77 -5 12 -7 -7 -5 -52z"/>
<path d="M1420 4030 c0 -5 5 -10 10 -10 6 0 10 5 10 10 0 6 -4 10 -10 10 -5 0
-10 -4 -10 -10z"/>
<path d="M1451 4024 c0 -11 3 -14 6 -6 3 7 2 16 -1 19 -3 4 -6 -2 -5 -13z"/>
</g>
</svg>
